<?xml version="1.0" encoding="UTF-8"?>
<svg id="Calque_2" data-name="Calque 2" xmlns="http://www.w3.org/2000/svg" viewBox="0 0 106.8 52.98">
  <defs>
    <style>
      .cls-1 {
        fill: #1d1d1b;
      }

      .cls-2 {
        fill: none;
      }
    </style>
  </defs>
  <g id="Calque_2-2" data-name="Calque 2">
    <g>
      <g>
        <path class="cls-2" d="M53.03,39.17c.95,0,1.72-.33,2.29-.99.58-.66.87-1.51.87-2.57,0-.11-.01-.2-.02-.3-1.89.88-3.75,1.73-5.6,2.55l-.3,1.3h2.75Z"/>
        <path class="cls-2" d="M98.76,33.78h-2.7l-1.24,5.39h2.75c.95,0,1.72-.33,2.29-.99.58-.66.87-1.51.87-2.57,0-.67-.16-1.14-.47-1.42-.31-.28-.81-.42-1.5-.42Z"/>
        <polygon class="cls-2" points="63.09 33.8 59.66 40.51 63.85 40.51 63.63 33.8 63.09 33.8"/>
        <path d="M46.63,28.78h3.3l.22-.94h-7.65l-.22.94h3.3l-.78,3.41c.38-.17.78-.34,1.17-.51l.67-2.9Z"/>
        <path d="M62.49,32.86l-6.04,11.81h1.05l1.68-3.25h4.66l.14,3.25h1.04l-.39-11.81h-2.14ZM59.66,40.51l3.43-6.71h.54l.22,6.71h-4.2Z"/>
        <path d="M70.47,43.89c-.79,0-1.37-.2-1.74-.6-.37-.4-.55-1.02-.55-1.86,0-1.78.4-3.49,1.21-5.13.37-.78.87-1.42,1.5-1.91.62-.49,1.33-.74,2.13-.74s1.66.09,2.58.27l.24-.85-.41-.08c-.82-.19-1.62-.29-2.4-.29s-1.53.19-2.2.57c-.67.38-1.24.87-1.68,1.48-.45.61-.83,1.3-1.15,2.08-.6,1.48-.9,3.03-.9,4.64,0,2.26,1.08,3.38,3.23,3.38.9,0,1.85-.12,2.86-.37l.05-.87-.39.08c-.73.14-1.51.2-2.36.2Z"/>
        <polygon points="84.9 32.86 83.71 32.86 79.26 38.39 77.59 38.42 78.88 32.86 77.83 32.86 75.11 44.68 76.15 44.68 77.37 39.35 79.17 39.32 81.08 44.68 82.18 44.68 80.09 38.83 84.9 32.86"/>
        <polygon points="87.43 33.8 92.89 33.8 93.11 32.86 86.6 32.86 83.88 44.68 90.37 44.68 90.6 43.74 85.14 43.74 86.21 39.12 90.71 39.12 90.94 38.18 86.41 38.18 87.43 33.8"/>
        <path d="M98.89,32.86h-3.67l-2.72,11.81h1.04l1.07-4.59h3.09l1.31,4.59h1.05l-1.38-4.73c.82-.18,1.54-.64,2.18-1.37.63-.73.95-1.73.95-3,0-.96-.24-1.66-.72-2.08-.48-.42-1.22-.64-2.2-.64ZM99.86,38.18c-.58.66-1.34.99-2.29.99h-2.75l1.24-5.39h2.7c.69,0,1.19.14,1.5.42.31.28.47.75.47,1.42,0,1.05-.29,1.91-.87,2.57Z"/>
        <path d="M106.65.58c-1.53-2.74-23.39,4.79-37.94,11.1h1.59C88.15,3.99,102.92-.15,103.66,1.77c.45,1.17-6.46,7.06-22,16.17-1.59.93-3.27,1.9-5.04,2.89-.46.26-.91.51-1.38.77-3.04,1.7-6.35,3.48-9.92,5.35-.23.12-.45.24-.68.36-2.11,1.1-4.32,2.23-6.61,3.38-.7.35-1.39.7-2.11,1.06-.82.38-1.61.74-2.41,1.11-1.07.49-2.12.97-3.16,1.43-1.87.84-3.68,1.64-5.44,2.41-.39.17-.78.34-1.17.51C17.52,48.52,3.64,51.57,2.85,50.21c-1.13-1.94,13.9-12.44,33.44-22.37h-1.41C20.82,35.01-1.21,48.72.05,51.8c1.42,3.48,19.47-.89,42.77-10.59l-.8,3.47h1.04l.91-3.95c1.78-.75,3.59-1.53,5.43-2.34l-1.45,6.29h1.04l1.07-4.59h3.09l1.31,4.59h1.05l-1.38-4.73c.82-.18,1.54-.64,2.18-1.37.63-.73.95-1.73.95-3,0-.27-.02-.52-.06-.75.08-.04.16-.07.24-.11v-.03s0,.02,0,.02c2.72-1.34,5.38-2.68,7.95-4.02h6.12v-3.27c.27-.15.55-.3.82-.45.02.07.03.14.05.2.27,1.17.55,2.34.83,3.52h4.33l1.67-7.07s0-.02,0-.02h.02s0,0,0,.02v7.07h6.55v-11.61c.23-.14.46-.28.68-.42v12.04h14.4v-4.4h-7.51v-2.15s5,0,5,0v-4.66h-5v-1.98h7.41v-4.57h-5.74c8.2-5.87,12.66-10.46,11.61-12.35ZM55.32,38.18c-.58.66-1.34.99-2.29.99h-2.75l.3-1.3c1.84-.82,3.71-1.67,5.6-2.55,0,.1.02.19.02.3,0,1.05-.29,1.91-.87,2.57Z"/>
      </g>
      <path d="M45.83,18.1s0,.01,0,.03v7.55h7.06v-7.55s0-.02,0-.02c0,0,.01,0,.03-.02h4.1v-5.17h-15.32v5.17h4.1s.02,0,.03,0Z"/>
      <path d="M64.64,21.56v-8.63h-7.06v12.97l.44-.22c2.29-1.15,4.5-2.28,6.61-3.38v-.74Z"/>
      <path d="M74.88,15.03c-.16-.7-.32-1.4-.49-2.1h-9.06v9.01c3.57-1.87,6.87-3.65,9.92-5.35-.12-.52-.24-1.05-.36-1.57Z"/>
      <polyline class="cls-1" points="78.15 12.93 81.85 12.93 77.59 15.29"/>
    </g>
  </g>
</svg>